<?xml version="1.0" encoding="iso-8859-1"?>
<!-- Generator: Adobe Illustrator 16.0.0, SVG Export Plug-In . SVG Version: 6.00 Build 0)  -->
<!DOCTYPE svg PUBLIC "-//W3C//DTD SVG 1.1//EN" "http://www.w3.org/Graphics/SVG/1.1/DTD/svg11.dtd">
<svg version="1.1" id="Capa_1" xmlns="http://www.w3.org/2000/svg" xmlns:xlink="http://www.w3.org/1999/xlink" x="0px" y="0px"
	 width="469.589px" height="469.59px" viewBox="0 0 469.589 469.59" style="enable-background:new 0 0 469.589 469.59;"
	 xml:space="preserve">
<g>
	<g>
		<path d="M305.46,324.479l-50.019-23.029l-24.028-20.264l-38.448,38.242l16.8,112.314c0.059,0.39-0.04,0.788-0.271,1.105
			l-17.726,24.26c-0.282,0.387-0.731,0.614-1.211,0.614c-0.479,0-0.929-0.229-1.211-0.614l-17.724-24.26
			c-0.232-0.317-0.331-0.716-0.272-1.105l16.799-112.314l-38.447-38.242l-24.028,20.264l-50.02,23.029
			c-7.399,3.035-14.533,7.316-18.372,15.674c0,0-54.367,129.438-24.878,129.438H348.71c29.489,0-24.878-129.438-24.878-129.438
			C320.611,332.449,312.861,327.514,305.46,324.479z"/>
		<path d="M190.556,280.454c51.154,0,89.329-47.662,90.198-127.589c0.555-55.463-25.86-88.656-90.198-88.656
			c-64.341,0-90.759,33.192-90.197,88.656C101.228,232.793,139.4,280.454,190.556,280.454z"/>
		<path d="M328,0c-39.819,0-75.088,19.834-96.456,50.14c5.825,1.771,11.34,3.946,16.522,6.515
			c11.285-14.68,26.519-26.175,44.099-32.885c-2.576,3.969-4.99,8.399-7.216,13.292c-3.866,8.486-7.051,18.039-9.509,28.337
			c-3.326,0.791-6.562,1.667-9.72,2.61c1.846,1.513,3.634,3.085,5.339,4.737c6.799,6.587,12.407,14.212,16.788,22.731
			c0.53-5.402,1.233-10.608,2.105-15.568c7.519-1.326,15.574-2.281,24.074-2.785c2.961,4.582,8.108,7.618,13.972,7.618
			s11.008-3.036,13.973-7.618c8.5,0.504,16.556,1.459,24.074,2.785c1.322,7.515,2.28,15.567,2.787,24.075
			c-4.583,2.958-7.625,8.107-7.625,13.968c0,5.861,3.042,11.01,7.625,13.969c-0.507,8.508-1.465,16.559-2.787,24.075
			c-7.519,1.325-15.574,2.281-24.074,2.786c-2.965-4.583-8.109-7.619-13.973-7.619s-11.011,3.036-13.972,7.619
			c-5.193-0.308-10.196-0.804-15.036-1.43c-0.252,5.861-0.68,11.583-1.288,17.145c5.174,0.651,10.456,1.146,15.822,1.458
			c2.853,5.044,8.265,8.449,14.474,8.449c6.208,0,11.621-3.405,14.472-8.449c6.618-0.384,13.115-1.033,19.428-1.931
			c-8.024,27.759-21.421,44.703-33.899,44.703c-11.201,0-23.137-13.656-31.27-36.525c-1.807,15.21-9.983,40.292-12.162,45.418
			c13.447,5.344,28.103,8.284,43.432,8.284c65.042,0,117.952-52.91,117.952-117.951S393.042,0,328,0z M385.999,103.479
			c-0.379-6.622-1.03-13.117-1.928-19.43c27.758,8.029,44.708,21.423,44.708,33.903c0,12.479-16.949,25.875-44.708,33.903
			c0.897-6.313,1.548-12.807,1.928-19.429c5.044-2.856,8.454-8.265,8.454-14.474S391.042,106.335,385.999,103.479z M342.472,59.949
			c-2.851-5.042-8.264-8.447-14.472-8.447c-6.209,0-11.621,3.405-14.474,8.447c-6.617,0.386-13.113,1.035-19.427,1.933
			c8.024-27.76,21.42-44.703,33.9-44.703c12.479,0,25.875,16.943,33.9,44.703C355.587,60.983,349.09,60.335,342.472,59.949z
			 M363.834,23.77c26.79,10.226,48.125,31.561,58.351,58.345c-3.971-2.571-8.404-4.986-13.289-7.213
			c-8.492-3.868-18.042-7.052-28.337-9.502c-2.459-10.298-5.643-19.852-9.511-28.337C368.825,32.169,366.411,27.738,363.834,23.77z
			 M363.834,212.135c2.576-3.969,4.99-8.399,7.214-13.292c3.868-8.486,7.052-18.039,9.511-28.336
			c10.296-2.452,19.845-5.635,28.337-9.504c4.885-2.227,9.317-4.641,13.289-7.213C411.959,180.573,390.625,201.908,363.834,212.135z
			"/>
	</g>
</g>
</svg>
